<svg width="20" height="21" viewBox="0 0 20 21" fill="none" xmlns="http://www.w3.org/2000/svg">
<path d="M15.6427 10.1573C18.3291 9.27056 18.8166 7.02924 18.8101 5.20268C18.8049 2.41422 16.8245 0.00179789 10.9617 0.00179789L0.0195312 0V20.9568H10.9336C16.8311 20.9568 19.0012 17.9471 19.0012 14.9324C19.0012 11.2819 15.6427 10.1573 15.6427 10.1573ZM5.21243 4.55929H12.5794L12.6061 4.56468C13.4377 4.71111 14.0431 5.41398 14.0431 6.2386C14.0431 7.08235 13.3944 7.87657 12.5372 7.99293L5.21743 8.00388L5.21243 4.55929ZM12.225 16.0728H5.21243V12.5641H12.3968L12.4137 12.5659C13.3075 12.6684 13.9845 13.4069 13.9845 14.2846C13.9845 15.241 13.1832 16.0581 12.225 16.0728Z" fill="#8491A0"/>
</svg>
