<svg width="20" height="21" viewBox="0 0 20 21" fill="none" xmlns="http://www.w3.org/2000/svg">
<path d="M19.6896 15.928C19.6157 15.9299 12.6706 16.0634 10.273 15.8309C6.41091 15.4549 5.0433 12.6115 5.0433 10.2906C5.0433 7.39692 7.0278 5.26738 10.1022 4.86749C11.5647 4.6771 19.5627 4.76682 19.6472 4.76764L19.8154 4.7696L19.8324 0.00244141L19.6625 0.0034214L10.6104 0.0199266C9.60272 0.0812096 7.93192 0.181878 6.22101 0.877398C4.57751 1.62586 3.14709 2.77553 2.07904 4.20596C0.719648 6.02696 0 8.18772 0 10.4543C0 11.1673 0.0567228 11.8748 0.172636 12.5538C0.824052 15.7322 2.92019 18.3623 5.92588 19.7772C6.94082 20.221 8.50606 20.7536 11.6628 20.9293C11.6693 20.9293 13.3634 20.9649 13.3634 20.9649L19.674 20.9713H19.8407L19.8585 15.926L19.6896 15.928Z" fill="#8491A0"/>
</svg>
