<?xml version="1.0" encoding="iso-8859-1"?>
<!-- Generator: Adobe Illustrator 18.0.0, SVG Export Plug-In . SVG Version: 6.00 Build 0)  -->
<!DOCTYPE svg PUBLIC "-//W3C//DTD SVG 1.1//EN" "http://www.w3.org/Graphics/SVG/1.1/DTD/svg11.dtd">
<svg version="1.1" id="Capa_1" xmlns="http://www.w3.org/2000/svg" xmlns:xlink="http://www.w3.org/1999/xlink" x="0px" y="0px"
	 viewBox="0 0 372.083 372.083" style="enable-background:new 0 0 372.083 372.083;" xml:space="preserve">
<g>
	<path d="M336.326,295.634c29.273-40.143,41.162-89.282,33.477-138.366c-7.686-49.085-34.026-92.238-74.168-121.511
		C255.492,6.483,206.35-5.407,157.268,2.281C108.183,9.966,65.03,36.306,35.757,76.449C6.484,116.591-5.405,165.731,2.28,214.815
		c7.686,49.085,34.026,92.238,74.168,121.511c32.175,23.463,70.124,35.757,109.197,35.757c9.676,0,19.427-0.755,29.169-2.28
		C263.899,362.117,307.053,335.777,336.326,295.634z M149.879,348.138h71.923c-3.328,0.729-6.686,1.373-10.081,1.904
		C190.825,353.317,169.921,352.604,149.879,348.138z M88.233,320.167c-4.374-3.189-8.561-6.566-12.559-10.112h220.784
		c-7.598,6.792-15.772,12.842-24.438,18.084H100.222C96.139,325.663,92.135,323.013,88.233,320.167z M51.916,88.233
		c26.125-35.826,64.639-59.334,108.445-66.192c8.698-1.362,17.395-2.035,26.033-2.035c34.869,0,68.742,10.973,97.455,31.911
		c35.826,26.126,59.334,64.639,66.193,108.445c4.954,31.639,0.79,63.302-11.745,91.949c-0.817-0.215-1.669-0.342-2.554-0.342
		H206.041v-13.623l1.535-9.847l47.605-37.026c1.922-1.495,3.233-3.642,3.686-6.034l6.001-31.72l32.045-13.458
		c5.092-2.138,7.486-8,5.348-13.092c-2.139-5.091-7.999-7.487-13.092-5.348l-19.163,8.048l3.797-17.055
		c1.2-5.391-2.197-10.734-7.588-11.934c-5.393-1.202-10.734,2.197-11.934,7.588l-8,35.938c-0.013,0.061-0.019,0.121-0.031,0.182
		c-0.009,0.045-0.025,0.087-0.034,0.132l-6.297,33.286l-27.848,21.66l5.852-37.546c0.011-0.068,0.012-0.137,0.022-0.205
		c0.027-0.2,0.048-0.4,0.063-0.6c0.009-0.126,0.016-0.252,0.02-0.378c0.007-0.202,0.008-0.403,0.003-0.604
		c-0.003-0.129-0.009-0.258-0.017-0.387c-0.012-0.194-0.031-0.386-0.054-0.578c-0.017-0.138-0.036-0.274-0.058-0.411
		c-0.03-0.181-0.066-0.36-0.105-0.539c-0.018-0.08-0.028-0.162-0.047-0.242l-9.296-37.538c-1.327-5.362-6.749-8.63-12.11-7.304
		c-5.361,1.328-8.63,6.75-7.303,12.11l4.464,18.024l-17.618-7.551l-0.845-35.117c-0.132-5.521-4.712-9.858-10.238-9.757
		c-5.521,0.133-9.889,4.717-9.756,10.237l1,41.538c0.094,3.912,2.461,7.41,6.058,8.951l34.862,14.941l-5.2,33.363l-34.566-24.94
		l-23.915-57.91c-2.108-5.104-7.953-7.533-13.06-5.426c-5.105,2.108-7.534,7.955-5.426,13.061l20.12,48.721H119.11l-6.295-29.113
		c-0.995-4.603-5.065-7.887-9.774-7.887h-28c-5.523,0-10,4.478-10,10s4.477,10,10,10h19.931l6.295,29.113
		c0.995,4.603,5.065,7.887,9.774,7.887h37.541l37.459,27.028v31.361H37.287c-1.193,0-2.333,0.22-3.394,0.603
		c-5.613-12.895-9.621-26.59-11.854-40.851C15.18,167.915,25.791,124.059,51.916,88.233z M43.914,271.969h284.158
		c-2.457,4.045-5.085,8.012-7.906,11.881c-1.54,2.112-3.127,4.178-4.753,6.204H56.589C51.956,284.306,47.722,278.268,43.914,271.969
		z"/>
</g>
<g>
</g>
<g>
</g>
<g>
</g>
<g>
</g>
<g>
</g>
<g>
</g>
<g>
</g>
<g>
</g>
<g>
</g>
<g>
</g>
<g>
</g>
<g>
</g>
<g>
</g>
<g>
</g>
<g>
</g>
</svg>
