<svg width="20" height="21" viewBox="0 0 20 21" fill="none" xmlns="http://www.w3.org/2000/svg">
<path d="M11.7485 0.0302734H0.566406V20.9938H5.70131V12.5121C5.70131 12.5121 11.3554 12.5057 11.3564 12.5057C12.9759 12.5304 14.2354 13.8492 14.2354 15.4754V20.9755L19.2616 20.9737L19.2515 14.2077C19.2515 11.0735 16.2056 10.1474 16.2056 10.1474C16.2056 10.1474 19.3197 9.22108 19.3197 5.51567C19.3197 0.98204 15.4002 0.0302734 11.7485 0.0302734ZM14.5513 6.53427C14.4591 7.22342 13.7659 7.97107 12.9004 7.97107L5.6837 7.97385V4.61702H12.904C13.7659 4.61702 14.4418 5.24847 14.5513 6.07686V6.53427Z" fill="#8491A0"/>
</svg>
